<?xml version="1.0" ?><svg height="24px" version="1.1" viewBox="0 0 23 24" width="23px" xmlns="http://www.w3.org/2000/svg" xmlns:xlink="http://www.w3.org/1999/xlink"><title/><desc/><defs/><g fill="none" fill-rule="evenodd" id="Page-1" stroke="none" stroke-width="1"><g fill="#000000" id="75---Ping-Pong-(sport,-game,-play)"><path d="M4.4483,8.9653 C4.4483,5.2873 6.1163,2.0343 8.6623,0.0443 C8.4473,0.0243 8.2333,0.0003 8.0173,0.0003 C3.5963,0.0003 0.0003,4.0223 0.0003,8.9653 C0.0003,9.6663 0.0793,10.3453 0.2163,11.0003 L4.6423,11.0003 C4.5233,10.3163 4.4483,9.6333 4.4483,8.9653" id="Fill-237"/><path d="M14.4659,0 C10.0449,0 6.4479,4.022 6.4479,8.965 C6.4479,9.666 6.5279,10.345 6.6649,11 L22.2659,11 C22.4029,10.345 22.4829,9.666 22.4829,8.965 C22.4829,4.022 18.8859,0 14.4659,0" id="Fill-238"/><path d="M16.0001,21 C16.0001,21.551 15.5521,22 15.0001,22 C14.4481,22 14.0001,21.551 14.0001,21 L14.0001,18 L16.0001,18 L16.0001,21 Z M9.0001,21 C9.0001,21.551 8.5521,22 8.0001,22 C7.4481,22 7.0001,21.551 7.0001,21 L7.0001,18 L9.0001,18 L9.0001,21 Z M9.5281,16 L6.8071,16 C6.3011,15.345 5.8551,14.622 5.4941,13.825 L5.1201,13 L0.8671,13 C1.7371,14.92 3.2101,16.431 5.0001,17.252 L5.0001,21 C5.0001,22.654 6.3461,24 8.0001,24 C9.6541,24 11.0001,22.654 11.0001,21 L11.0001,17.032 C11.3221,17.207 11.6561,17.356 12.0001,17.481 L12.0001,21 C12.0001,22.654 13.3461,24 15.0001,24 C16.6541,24 18.0001,22.654 18.0001,21 L18.0001,17 C18.0001,16.997 17.9981,16.995 17.9981,16.992 C19.5531,16.129 20.8301,14.732 21.6151,13 L7.3161,13 C7.8481,14.175 8.6121,15.191 9.5281,16 L9.5281,16 Z" id="Fill-239"/></g></g></svg>